<svg xmlns="http://www.w3.org/2000/svg" version="1.1" xmlns:xlink="http://www.w3.org/1999/xlink" xmlns:svgjs="http://svgjs.dev/svgjs" viewBox="0 0 800 800"><g transform="matrix(1,0,0,1,0,0)"><circle r="104.5" cx="729" cy="774" stroke-width="5" stroke="#da7d58" fill="none" opacity="0.07" transform="rotate(116, 448.00000000000006, 400)"></circle><circle r="105.3921568627451" cx="722.5490196078431" cy="766.6666666666666" stroke-width="5.215686274509804" stroke="#d97e5a" fill="none" opacity="0.08823529411764706" transform="rotate(113.72549019607843, 448.00000000000006, 400)"></circle><circle r="106.2843137254902" cx="716.0980392156863" cy="759.3333333333334" stroke-width="5.431372549019608" stroke="#d87f5d" fill="none" opacity="0.10647058823529412" transform="rotate(111.45098039215686, 448.00000000000006, 400)"></circle><circle r="107.17647058823529" cx="709.6470588235294" cy="752" stroke-width="5.647058823529412" stroke="#d8805f" fill="none" opacity="0.12470588235294118" transform="rotate(109.17647058823529, 448.00000000000006, 400)"></circle><circle r="108.06862745098039" cx="703.1960784313726" cy="744.6666666666666" stroke-width="5.862745098039216" stroke="#d78262" fill="none" opacity="0.14294117647058824" transform="rotate(106.90196078431373, 448.00000000000006, 400)"></circle><circle r="108.9607843137255" cx="696.7450980392157" cy="737.3333333333334" stroke-width="6.078431372549019" stroke="#d68364" fill="none" opacity="0.1611764705882353" transform="rotate(104.62745098039215, 448.00000000000006, 400)"></circle><circle r="109.8529411764706" cx="690.2941176470588" cy="730" stroke-width="6.294117647058823" stroke="#d58466" fill="none" opacity="0.17941176470588235" transform="rotate(102.3529411764706, 448.00000000000006, 400)"></circle><circle r="110.74509803921569" cx="683.843137254902" cy="722.6666666666666" stroke-width="6.509803921568627" stroke="#d58568" fill="none" opacity="0.1976470588235294" transform="rotate(100.07843137254902, 448.00000000000006, 400)"></circle><circle r="111.63725490196079" cx="677.3921568627451" cy="715.3333333333334" stroke-width="6.7254901960784315" stroke="#d4866a" fill="none" opacity="0.21588235294117647" transform="rotate(97.80392156862746, 448.00000000000006, 400)"></circle><circle r="112.52941176470588" cx="670.9411764705883" cy="708" stroke-width="6.9411764705882355" stroke="#d3876c" fill="none" opacity="0.23411764705882354" transform="rotate(95.52941176470588, 448.00000000000006, 400)"></circle><circle r="113.42156862745098" cx="664.4901960784314" cy="700.6666666666666" stroke-width="7.1568627450980395" stroke="#d2886e" fill="none" opacity="0.25235294117647056" transform="rotate(93.25490196078431, 448.00000000000006, 400)"></circle><circle r="114.31372549019608" cx="658.0392156862745" cy="693.3333333333334" stroke-width="7.372549019607844" stroke="#d18970" fill="none" opacity="0.27058823529411763" transform="rotate(90.98039215686275, 448.00000000000006, 400)"></circle><circle r="115.20588235294117" cx="651.5882352941177" cy="686" stroke-width="7.588235294117647" stroke="#d08a72" fill="none" opacity="0.2888235294117647" transform="rotate(88.70588235294117, 448.00000000000006, 400)"></circle><circle r="116.09803921568627" cx="645.1372549019608" cy="678.6666666666666" stroke-width="7.803921568627452" stroke="#d08b74" fill="none" opacity="0.3070588235294118" transform="rotate(86.43137254901961, 448.00000000000006, 400)"></circle><circle r="116.99019607843137" cx="638.686274509804" cy="671.3333333333334" stroke-width="8.019607843137255" stroke="#cf8c76" fill="none" opacity="0.3252941176470588" transform="rotate(84.15686274509804, 448.00000000000006, 400)"></circle><circle r="117.88235294117646" cx="632.2352941176471" cy="664" stroke-width="8.235294117647058" stroke="#ce8d78" fill="none" opacity="0.34352941176470586" transform="rotate(81.88235294117646, 448.00000000000006, 400)"></circle><circle r="118.77450980392157" cx="625.7843137254902" cy="656.6666666666666" stroke-width="8.450980392156863" stroke="#cd8e7a" fill="none" opacity="0.36176470588235293" transform="rotate(79.6078431372549, 448.00000000000006, 400)"></circle><circle r="119.66666666666667" cx="619.3333333333334" cy="649.3333333333334" stroke-width="8.666666666666668" stroke="#cc8f7c" fill="none" opacity="0.38" transform="rotate(77.33333333333334, 448.00000000000006, 400)"></circle><circle r="120.55882352941177" cx="612.8823529411765" cy="642" stroke-width="8.882352941176471" stroke="#cc907d" fill="none" opacity="0.3982352941176471" transform="rotate(75.05882352941177, 448.00000000000006, 400)"></circle><circle r="121.45098039215686" cx="606.4313725490196" cy="634.6666666666667" stroke-width="9.098039215686274" stroke="#cb917f" fill="none" opacity="0.4164705882352941" transform="rotate(72.7843137254902, 448.00000000000006, 400)"></circle><circle r="122.34313725490196" cx="599.9803921568628" cy="627.3333333333334" stroke-width="9.313725490196079" stroke="#ca9281" fill="none" opacity="0.43470588235294116" transform="rotate(70.50980392156863, 448.00000000000006, 400)"></circle><circle r="123.23529411764706" cx="593.5294117647059" cy="620" stroke-width="9.529411764705882" stroke="#c99382" fill="none" opacity="0.45294117647058824" transform="rotate(68.23529411764706, 448.00000000000006, 400)"></circle><circle r="124.12745098039215" cx="587.078431372549" cy="612.6666666666667" stroke-width="9.745098039215687" stroke="#c89484" fill="none" opacity="0.47117647058823525" transform="rotate(65.9607843137255, 448.00000000000006, 400)"></circle><circle r="125.01960784313725" cx="580.6274509803922" cy="605.3333333333334" stroke-width="9.96078431372549" stroke="#c79586" fill="none" opacity="0.4894117647058823" transform="rotate(63.68627450980392, 448.00000000000006, 400)"></circle><circle r="125.91176470588235" cx="574.1764705882354" cy="598" stroke-width="10.176470588235293" stroke="#c79687" fill="none" opacity="0.5076470588235293" transform="rotate(61.411764705882355, 448.00000000000006, 400)"></circle><circle r="126.80392156862746" cx="567.7254901960785" cy="590.6666666666667" stroke-width="10.392156862745098" stroke="#c69789" fill="none" opacity="0.5258823529411765" transform="rotate(59.13725490196079, 448.00000000000006, 400)"></circle><circle r="127.69607843137256" cx="561.2745098039215" cy="583.3333333333334" stroke-width="10.607843137254903" stroke="#c5988b" fill="none" opacity="0.5441176470588236" transform="rotate(56.86274509803922, 448.00000000000006, 400)"></circle><circle r="128.58823529411765" cx="554.8235294117646" cy="576" stroke-width="10.823529411764707" stroke="#c4998c" fill="none" opacity="0.5623529411764705" transform="rotate(54.58823529411765, 448.00000000000006, 400)"></circle><circle r="129.48039215686273" cx="548.3725490196078" cy="568.6666666666667" stroke-width="11.03921568627451" stroke="#c39a8e" fill="none" opacity="0.5805882352941176" transform="rotate(52.31372549019608, 448.00000000000006, 400)"></circle><circle r="130.37254901960785" cx="541.9215686274509" cy="561.3333333333334" stroke-width="11.254901960784313" stroke="#c29b8f" fill="none" opacity="0.5988235294117648" transform="rotate(50.03921568627452, 448.00000000000006, 400)"></circle><circle r="131.26470588235293" cx="535.4705882352941" cy="554" stroke-width="11.470588235294118" stroke="#c19c91" fill="none" opacity="0.6170588235294117" transform="rotate(47.76470588235294, 448.00000000000006, 400)"></circle><circle r="132.15686274509804" cx="529.0196078431372" cy="546.6666666666667" stroke-width="11.686274509803923" stroke="#c09d92" fill="none" opacity="0.6352941176470588" transform="rotate(45.49019607843138, 448.00000000000006, 400)"></circle><circle r="133.04901960784315" cx="522.5686274509803" cy="539.3333333333334" stroke-width="11.901960784313726" stroke="#c09e94" fill="none" opacity="0.6535294117647059" transform="rotate(43.21568627450981, 448.00000000000006, 400)"></circle><circle r="133.94117647058823" cx="516.1176470588235" cy="532" stroke-width="12.117647058823529" stroke="#bf9e95" fill="none" opacity="0.6717647058823528" transform="rotate(40.94117647058823, 448.00000000000006, 400)"></circle><circle r="134.83333333333334" cx="509.66666666666663" cy="524.6666666666667" stroke-width="12.333333333333334" stroke="#be9f97" fill="none" opacity="0.69" transform="rotate(38.66666666666667, 448.00000000000006, 400)"></circle><circle r="135.72549019607843" cx="503.21568627450984" cy="517.3333333333334" stroke-width="12.549019607843139" stroke="#bda098" fill="none" opacity="0.7082352941176471" transform="rotate(36.3921568627451, 448.00000000000006, 400)"></circle><circle r="136.61764705882354" cx="496.7647058823529" cy="510" stroke-width="12.764705882352942" stroke="#bca19a" fill="none" opacity="0.7264705882352942" transform="rotate(34.117647058823536, 448.00000000000006, 400)"></circle><circle r="137.50980392156862" cx="490.3137254901961" cy="502.6666666666667" stroke-width="12.980392156862745" stroke="#bba29b" fill="none" opacity="0.7447058823529411" transform="rotate(31.84313725490196, 448.00000000000006, 400)"></circle><circle r="138.40196078431373" cx="483.8627450980392" cy="495.33333333333337" stroke-width="13.19607843137255" stroke="#baa39d" fill="none" opacity="0.7629411764705882" transform="rotate(29.5686274509804, 448.00000000000006, 400)"></circle><circle r="139.29411764705884" cx="477.4117647058823" cy="488" stroke-width="13.411764705882353" stroke="#b9a49e" fill="none" opacity="0.7811764705882354" transform="rotate(27.294117647058826, 448.00000000000006, 400)"></circle><circle r="140.18627450980392" cx="470.96078431372547" cy="480.6666666666667" stroke-width="13.627450980392158" stroke="#b8a59f" fill="none" opacity="0.7994117647058823" transform="rotate(25.019607843137265, 448.00000000000006, 400)"></circle><circle r="141.078431372549" cx="464.5098039215686" cy="473.33333333333337" stroke-width="13.843137254901961" stroke="#b7a6a1" fill="none" opacity="0.8176470588235294" transform="rotate(22.74509803921569, 448.00000000000006, 400)"></circle><circle r="141.97058823529412" cx="458.05882352941177" cy="466" stroke-width="14.058823529411764" stroke="#b7a6a2" fill="none" opacity="0.8358823529411765" transform="rotate(20.470588235294116, 448.00000000000006, 400)"></circle><circle r="142.86274509803923" cx="451.6078431372549" cy="458.6666666666667" stroke-width="14.27450980392157" stroke="#b6a7a4" fill="none" opacity="0.8541176470588234" transform="rotate(18.196078431372555, 448.00000000000006, 400)"></circle><circle r="143.7549019607843" cx="445.156862745098" cy="451.33333333333337" stroke-width="14.490196078431373" stroke="#b5a8a5" fill="none" opacity="0.8723529411764706" transform="rotate(15.92156862745098, 448.00000000000006, 400)"></circle><circle r="144.64705882352942" cx="438.70588235294116" cy="444" stroke-width="14.705882352941178" stroke="#b4a9a6" fill="none" opacity="0.8905882352941177" transform="rotate(13.64705882352942, 448.00000000000006, 400)"></circle><circle r="145.5392156862745" cx="432.2549019607843" cy="436.6666666666667" stroke-width="14.92156862745098" stroke="#b3aaa8" fill="none" opacity="0.9088235294117646" transform="rotate(11.372549019607845, 448.00000000000006, 400)"></circle><circle r="146.4313725490196" cx="425.80392156862746" cy="429.33333333333337" stroke-width="15.137254901960786" stroke="#b2aba9" fill="none" opacity="0.9270588235294117" transform="rotate(9.098039215686285, 448.00000000000006, 400)"></circle><circle r="147.3235294117647" cx="419.3529411764706" cy="422" stroke-width="15.352941176470589" stroke="#b1acaa" fill="none" opacity="0.9452941176470588" transform="rotate(6.82352941176471, 448.00000000000006, 400)"></circle><circle r="148.2156862745098" cx="412.9019607843137" cy="414.6666666666667" stroke-width="15.568627450980392" stroke="#b0acab" fill="none" opacity="0.9635294117647057" transform="rotate(4.549019607843135, 448.00000000000006, 400)"></circle><circle r="149.10784313725492" cx="406.45098039215685" cy="407.33333333333337" stroke-width="15.784313725490197" stroke="#afadad" fill="none" opacity="0.9817647058823529" transform="rotate(2.2745098039215748, 448.00000000000006, 400)"></circle><circle r="150" cx="400" cy="400" stroke-width="16" stroke="#aeaeae" fill="none" opacity="1" transform="rotate(0, 448.00000000000006, 400)"></circle></g></svg>